# xmcd CD database file
#
# Track frame offsets:
#	150
#	13475
#	32469
#	46550
#	58187
#	71785
#	83494
#	102875
#	115738
#	126867
#	139635
#	157207
#	172338
#	187490
#	208391
#	229775
#	245895
#	263118
#	276741
#	289709
#	301875
#
# Disc length: 4161 seconds
#
# Revision: 0
# Processed by: cddbd v1.5.2PL0 Copyright (c) Steve Scherf et al.
# Submitted via: CDex 1.51
#
DISCID=4a103f15
DTITLE=Various Artist - Golden Country
DYEAR=1900
DGENRE=Country
TTITLE0=Lynn Anderson - Top of the world
TTITLE1=John Denver - Rocky mountain high
TTITLE2=Kenny Rogers - You light up my life
TTITLE3=Louis Nunley - Everybody's talkin'
TTITLE4=Mel McDaniel - Baby's got her blue jeans on
TTITLE5=Donna Fargo - The happiest girl in the whole USA
TTITLE6=Jimmy Lawton - Midnight special
TTITLE7=Brenda Lee - Jambalaya
TTITLE8=Stonewall Jackson - Waterloo
TTITLE9=Billie Jo Spears - What I've got in mind
TTITLE10=Jimmy Lawton - Orange blossom special
TTITLE11=Marie Lewey - Lord of the dance
TTITLE12=Billie Jo Spears - Blanket on the ground
TTITLE13=Cindy Walker - From a distance
TTITLE14=Marty Raybon - Butterfly kisses
TTITLE15=Austin Roberts - Rocky
TTITLE16=Don Williams - I believe in you
TTITLE17=Glen Campbell - Make it easy on yourself
TTITLE18=Jimmy Lawton - You're my best friend
TTITLE19=Lee Greenwood - You'll never walk alone
TTITLE20=Glen Campbell - What a wonderful world
EXTD=
EXTT0=
EXTT1=
EXTT2=
EXTT3=
EXTT4=
EXTT5=
EXTT6=
EXTT7=
EXTT8=
EXTT9=
EXTT10=
EXTT11=
EXTT12=
EXTT13=
EXTT14=
EXTT15=
EXTT16=
EXTT17=
EXTT18=
EXTT19=
EXTT20=
PLAYORDER=
